<mxfile host="app.diagrams.net" modified="2020-10-13T14:46:59.863Z" agent="5.0 (Windows NT 10.0; Win64; x64) AppleWebKit/537.36 (KHTML, like Gecko) Chrome/86.0.4240.75 Safari/537.36" etag="Nd2T6Z0We1APw8twsoJq" version="13.7.9" type="github">
  <diagram id="vilp62zk9X8BYbx7Whbz" name="Page-1">
    <mxGraphModel dx="599" dy="632" grid="1" gridSize="10" guides="1" tooltips="1" connect="1" arrows="1" fold="1" page="1" pageScale="1" pageWidth="827" pageHeight="1169" math="0" shadow="0">
      <root>
        <mxCell id="0" />
        <mxCell id="1" parent="0" />
        <mxCell id="bsP4YLUhBeUWoqfiTBNK-35" value="&lt;div&gt;&lt;font style=&quot;font-size: 36px&quot;&gt;Roadmap to Angular Testing Mastery&lt;/font&gt;&lt;/div&gt;&lt;div&gt;&lt;br&gt;&lt;/div&gt;" style="text;html=1;strokeColor=none;fillColor=none;align=center;verticalAlign=middle;whiteSpace=wrap;rounded=0;" parent="1" vertex="1">
          <mxGeometry x="40" width="760" height="80" as="geometry" />
        </mxCell>
        <mxCell id="bsP4YLUhBeUWoqfiTBNK-36" value="" style="group" parent="1" vertex="1" connectable="0">
          <mxGeometry x="830" y="470" width="700" height="500" as="geometry" />
        </mxCell>
        <mxCell id="bsP4YLUhBeUWoqfiTBNK-29" value="" style="ellipse;whiteSpace=wrap;html=1;fillColor=none;" parent="bsP4YLUhBeUWoqfiTBNK-36" vertex="1">
          <mxGeometry y="10" width="464" height="480" as="geometry" />
        </mxCell>
        <mxCell id="bsP4YLUhBeUWoqfiTBNK-1" value="R" style="rounded=0;whiteSpace=wrap;html=1;" parent="bsP4YLUhBeUWoqfiTBNK-36" vertex="1">
          <mxGeometry x="91" y="61" width="40" height="40" as="geometry" />
        </mxCell>
        <mxCell id="bsP4YLUhBeUWoqfiTBNK-3" value="C" style="rounded=0;whiteSpace=wrap;html=1;" parent="bsP4YLUhBeUWoqfiTBNK-36" vertex="1">
          <mxGeometry x="91" y="180" width="40" height="40" as="geometry" />
        </mxCell>
        <mxCell id="bsP4YLUhBeUWoqfiTBNK-20" style="edgeStyle=none;orthogonalLoop=1;jettySize=auto;html=1;entryX=0.5;entryY=0;entryDx=0;entryDy=0;endArrow=none;" parent="bsP4YLUhBeUWoqfiTBNK-36" source="bsP4YLUhBeUWoqfiTBNK-1" target="bsP4YLUhBeUWoqfiTBNK-3" edge="1">
          <mxGeometry relative="1" as="geometry" />
        </mxCell>
        <mxCell id="bsP4YLUhBeUWoqfiTBNK-5" value="D" style="rounded=0;whiteSpace=wrap;html=1;" parent="bsP4YLUhBeUWoqfiTBNK-36" vertex="1">
          <mxGeometry x="151" y="300" width="40" height="40" as="geometry" />
        </mxCell>
        <mxCell id="bsP4YLUhBeUWoqfiTBNK-21" style="edgeStyle=none;orthogonalLoop=1;jettySize=auto;html=1;entryX=0;entryY=0.5;entryDx=0;entryDy=0;endArrow=none;" parent="bsP4YLUhBeUWoqfiTBNK-36" source="bsP4YLUhBeUWoqfiTBNK-3" target="bsP4YLUhBeUWoqfiTBNK-5" edge="1">
          <mxGeometry relative="1" as="geometry">
            <Array as="points">
              <mxPoint x="101" y="320" />
            </Array>
          </mxGeometry>
        </mxCell>
        <mxCell id="bsP4YLUhBeUWoqfiTBNK-8" value="P" style="rounded=0;whiteSpace=wrap;html=1;" parent="bsP4YLUhBeUWoqfiTBNK-36" vertex="1">
          <mxGeometry x="151" y="420" width="40" height="40" as="geometry" />
        </mxCell>
        <mxCell id="bsP4YLUhBeUWoqfiTBNK-22" style="edgeStyle=none;orthogonalLoop=1;jettySize=auto;html=1;entryX=0;entryY=0.5;entryDx=0;entryDy=0;endArrow=none;" parent="bsP4YLUhBeUWoqfiTBNK-36" source="bsP4YLUhBeUWoqfiTBNK-3" target="bsP4YLUhBeUWoqfiTBNK-8" edge="1">
          <mxGeometry relative="1" as="geometry">
            <Array as="points">
              <mxPoint x="101" y="440" />
            </Array>
          </mxGeometry>
        </mxCell>
        <mxCell id="bsP4YLUhBeUWoqfiTBNK-19" style="edgeStyle=none;orthogonalLoop=1;jettySize=auto;html=1;entryX=1;entryY=0.5;entryDx=0;entryDy=0;endArrow=none;" parent="bsP4YLUhBeUWoqfiTBNK-36" source="bsP4YLUhBeUWoqfiTBNK-10" target="bsP4YLUhBeUWoqfiTBNK-3" edge="1">
          <mxGeometry relative="1" as="geometry" />
        </mxCell>
        <mxCell id="bsP4YLUhBeUWoqfiTBNK-23" style="edgeStyle=none;orthogonalLoop=1;jettySize=auto;html=1;entryX=1;entryY=0.5;entryDx=0;entryDy=0;endArrow=none;" parent="bsP4YLUhBeUWoqfiTBNK-36" source="bsP4YLUhBeUWoqfiTBNK-10" target="bsP4YLUhBeUWoqfiTBNK-5" edge="1">
          <mxGeometry relative="1" as="geometry" />
        </mxCell>
        <mxCell id="bsP4YLUhBeUWoqfiTBNK-24" style="edgeStyle=none;orthogonalLoop=1;jettySize=auto;html=1;entryX=1;entryY=0.5;entryDx=0;entryDy=0;endArrow=none;" parent="bsP4YLUhBeUWoqfiTBNK-36" source="bsP4YLUhBeUWoqfiTBNK-10" target="bsP4YLUhBeUWoqfiTBNK-8" edge="1">
          <mxGeometry relative="1" as="geometry" />
        </mxCell>
        <mxCell id="bsP4YLUhBeUWoqfiTBNK-10" value="S" style="rounded=0;whiteSpace=wrap;html=1;" parent="bsP4YLUhBeUWoqfiTBNK-36" vertex="1">
          <mxGeometry x="251" y="240" width="40" height="40" as="geometry" />
        </mxCell>
        <mxCell id="bsP4YLUhBeUWoqfiTBNK-18" value="" style="endArrow=none;html=1;exitX=1;exitY=1;exitDx=0;exitDy=0;entryX=0;entryY=0;entryDx=0;entryDy=0;" parent="bsP4YLUhBeUWoqfiTBNK-36" source="bsP4YLUhBeUWoqfiTBNK-1" target="bsP4YLUhBeUWoqfiTBNK-10" edge="1">
          <mxGeometry width="50" height="50" relative="1" as="geometry">
            <mxPoint x="211" y="120" as="sourcePoint" />
            <mxPoint x="261" y="70" as="targetPoint" />
          </mxGeometry>
        </mxCell>
        <mxCell id="bsP4YLUhBeUWoqfiTBNK-26" style="edgeStyle=none;orthogonalLoop=1;jettySize=auto;html=1;entryX=1;entryY=0.5;entryDx=0;entryDy=0;endArrow=none;" parent="bsP4YLUhBeUWoqfiTBNK-36" source="bsP4YLUhBeUWoqfiTBNK-25" target="bsP4YLUhBeUWoqfiTBNK-10" edge="1">
          <mxGeometry relative="1" as="geometry" />
        </mxCell>
        <mxCell id="bsP4YLUhBeUWoqfiTBNK-25" value="BE" style="rounded=0;whiteSpace=wrap;html=1;" parent="bsP4YLUhBeUWoqfiTBNK-36" vertex="1">
          <mxGeometry x="371" y="240" width="40" height="40" as="geometry" />
        </mxCell>
        <mxCell id="bsP4YLUhBeUWoqfiTBNK-27" value="" style="endArrow=none;dashed=1;html=1;" parent="bsP4YLUhBeUWoqfiTBNK-36" edge="1">
          <mxGeometry width="50" height="50" relative="1" as="geometry">
            <mxPoint x="331" y="450" as="sourcePoint" />
            <mxPoint x="331" y="50" as="targetPoint" />
          </mxGeometry>
        </mxCell>
        <mxCell id="bsP4YLUhBeUWoqfiTBNK-30" value="" style="shape=image;html=1;verticalAlign=top;verticalLabelPosition=bottom;labelBackgroundColor=#ffffff;imageAspect=0;aspect=fixed;image=https://cdn0.iconfinder.com/data/icons/google-material-design-3-0/48/ic_bug_report_48px-128.png;fillColor=#FF0000;strokeColor=#FF0000;" parent="bsP4YLUhBeUWoqfiTBNK-36" vertex="1">
          <mxGeometry x="181" y="154" width="20" height="20" as="geometry" />
        </mxCell>
        <mxCell id="bsP4YLUhBeUWoqfiTBNK-31" value="" style="shape=image;html=1;verticalAlign=top;verticalLabelPosition=bottom;labelBackgroundColor=#ffffff;imageAspect=0;aspect=fixed;image=https://cdn0.iconfinder.com/data/icons/google-material-design-3-0/48/ic_bug_report_48px-128.png;fillColor=#FF0000;strokeColor=#FF0000;" parent="bsP4YLUhBeUWoqfiTBNK-36" vertex="1">
          <mxGeometry x="120" y="71" width="20" height="20" as="geometry" />
        </mxCell>
        <mxCell id="bsP4YLUhBeUWoqfiTBNK-32" value="" style="shape=image;html=1;verticalAlign=top;verticalLabelPosition=bottom;labelBackgroundColor=#ffffff;imageAspect=0;aspect=fixed;image=https://cdn0.iconfinder.com/data/icons/google-material-design-3-0/48/ic_bug_report_48px-128.png;fillColor=#FF0000;strokeColor=#FF0000;" parent="bsP4YLUhBeUWoqfiTBNK-36" vertex="1">
          <mxGeometry x="161" width="20" height="20" as="geometry" />
        </mxCell>
        <mxCell id="bsP4YLUhBeUWoqfiTBNK-42" value="&lt;b&gt;Smoke Test&lt;/b&gt;&amp;nbsp;- testing that the app loads and the critical things load. Macro+Int+DOM aka end-to-end tests" style="text;html=1;strokeColor=none;fillColor=none;align=center;verticalAlign=middle;whiteSpace=wrap;rounded=0;" parent="bsP4YLUhBeUWoqfiTBNK-36" vertex="1">
          <mxGeometry x="369" y="30" width="306" height="20" as="geometry" />
        </mxCell>
        <mxCell id="bsP4YLUhBeUWoqfiTBNK-47" value="&lt;b&gt;Contract Test&lt;br&gt;&lt;/b&gt;Micro+Iso+DOM" style="text;html=1;strokeColor=none;fillColor=none;align=center;verticalAlign=middle;whiteSpace=wrap;rounded=0;" parent="bsP4YLUhBeUWoqfiTBNK-36" vertex="1">
          <mxGeometry x="131" y="40" width="97" height="20" as="geometry" />
        </mxCell>
        <mxCell id="bsP4YLUhBeUWoqfiTBNK-48" value="&lt;b&gt;Colaboration Test&lt;/b&gt;&amp;nbsp;" style="text;html=1;strokeColor=none;fillColor=none;align=center;verticalAlign=middle;whiteSpace=wrap;rounded=0;" parent="bsP4YLUhBeUWoqfiTBNK-36" vertex="1">
          <mxGeometry x="154" y="130" width="97" height="20" as="geometry" />
        </mxCell>
        <mxCell id="bsP4YLUhBeUWoqfiTBNK-49" value="&lt;b&gt;Contract Test&lt;br&gt;&lt;/b&gt;Micro+Iso+Class" style="text;html=1;strokeColor=none;fillColor=none;align=center;verticalAlign=middle;whiteSpace=wrap;rounded=0;" parent="bsP4YLUhBeUWoqfiTBNK-36" vertex="1">
          <mxGeometry x="243" y="210" width="97" height="20" as="geometry" />
        </mxCell>
        <mxCell id="bsP4YLUhBeUWoqfiTBNK-50" value="&lt;b&gt;Contract Test&lt;br&gt;&lt;/b&gt;Micro+Iso+DOM" style="text;html=1;strokeColor=none;fillColor=none;align=center;verticalAlign=middle;whiteSpace=wrap;rounded=0;" parent="bsP4YLUhBeUWoqfiTBNK-36" vertex="1">
          <mxGeometry y="190" width="97" height="20" as="geometry" />
        </mxCell>
        <mxCell id="bsP4YLUhBeUWoqfiTBNK-51" value="&lt;b&gt;Contract Test&lt;br&gt;&lt;/b&gt;Micro+Iso+DOM" style="text;html=1;strokeColor=none;fillColor=none;align=center;verticalAlign=middle;whiteSpace=wrap;rounded=0;" parent="bsP4YLUhBeUWoqfiTBNK-36" vertex="1">
          <mxGeometry x="120" y="270" width="97" height="20" as="geometry" />
        </mxCell>
        <mxCell id="bsP4YLUhBeUWoqfiTBNK-52" value="&lt;b&gt;Contract Test&lt;br&gt;&lt;/b&gt;Micro+Iso+DOM" style="text;html=1;strokeColor=none;fillColor=none;align=center;verticalAlign=middle;whiteSpace=wrap;rounded=0;" parent="bsP4YLUhBeUWoqfiTBNK-36" vertex="1">
          <mxGeometry x="104" y="390" width="97" height="20" as="geometry" />
        </mxCell>
        <mxCell id="bsP4YLUhBeUWoqfiTBNK-38" value="&lt;h1&gt;Lesson 3 - Which tests should we write&lt;/h1&gt;&lt;p&gt;&lt;b&gt;Automated Tests&lt;/b&gt;&lt;/p&gt;&lt;p&gt;Unit Test and&amp;nbsp;&lt;span&gt;Integration Test are Ambiguous Terms&lt;/span&gt;&lt;/p&gt;&lt;p&gt;&lt;span&gt;&lt;br&gt;&lt;/span&gt;&lt;/p&gt;&lt;p&gt;&lt;span&gt;&lt;b&gt;The 3 Test Dimensions (more specific terms)&lt;/b&gt;&lt;/span&gt;&lt;/p&gt;&lt;p&gt;SCOPE&lt;br&gt;Micro - we test just 1 button&lt;br&gt;Macro - we test like several buttons together&lt;/p&gt;&lt;p&gt;BOUNDARIES&lt;br&gt;Isolated - test only 1 box&lt;br&gt;Integrated - test many boxes together&lt;/p&gt;&lt;p&gt;SUBJECT&lt;br&gt;Class&lt;br&gt;DOM&lt;/p&gt;" style="text;html=1;strokeColor=none;fillColor=none;spacing=5;spacingTop=-20;whiteSpace=wrap;overflow=hidden;rounded=0;" parent="1" vertex="1">
          <mxGeometry x="40" y="720" width="720" height="400" as="geometry" />
        </mxCell>
        <mxCell id="bsP4YLUhBeUWoqfiTBNK-39" value="&lt;h1&gt;Lesson 4 -&amp;nbsp;Where should we start from&lt;/h1&gt;&lt;p&gt;Layers&lt;/p&gt;" style="text;html=1;strokeColor=none;fillColor=none;spacing=5;spacingTop=-20;whiteSpace=wrap;overflow=hidden;rounded=0;" parent="1" vertex="1">
          <mxGeometry x="40" y="1160" width="720" height="120" as="geometry" />
        </mxCell>
        <mxCell id="bsP4YLUhBeUWoqfiTBNK-40" value="&lt;h1&gt;Lesson 2 - Where do bugs hide?&lt;/h1&gt;&lt;p&gt;&lt;b&gt;Angular Application&lt;/b&gt;&lt;/p&gt;&lt;p&gt;- Routes - load components&lt;/p&gt;&lt;p&gt;- Components - load directives and pipes&lt;/p&gt;&lt;p&gt;- Directives&lt;/p&gt;&lt;p&gt;- Pipes&lt;/p&gt;&lt;p&gt;- Services - everything can inject services&lt;/p&gt;&lt;p&gt;&lt;span&gt;&lt;b&gt;2 Types of things to test:&lt;/b&gt;&lt;/span&gt;&lt;br&gt;&lt;/p&gt;&lt;p&gt;- Logic &amp;lt;-&lt;/p&gt;&lt;p&gt;- Design&lt;/p&gt;&lt;p&gt;&lt;b&gt;Bugs hide&lt;/b&gt;&amp;nbsp;in the Boxes, Lines and the Big Circle.&lt;br&gt;&lt;/p&gt;&lt;p&gt;&lt;b&gt;Boxes&lt;/b&gt; are individual objects that we are testing (subject/object under test).&lt;br&gt;&lt;/p&gt;&lt;p&gt;&lt;b&gt;Lines &lt;/b&gt;represent the connectivity between the boxes, how do they interact with each other.&lt;/p&gt;&lt;p&gt;The &lt;b&gt;Big Circle &lt;/b&gt;represents the assembly of the app, how we configured everything.&lt;/p&gt;" style="text;html=1;strokeColor=none;fillColor=none;spacing=5;spacingTop=-20;whiteSpace=wrap;overflow=hidden;rounded=0;" parent="1" vertex="1">
          <mxGeometry x="40" y="280" width="720" height="400" as="geometry" />
        </mxCell>
        <mxCell id="bsP4YLUhBeUWoqfiTBNK-41" value="&lt;h1&gt;Lesson 1 -&amp;nbsp;Why Testing?&lt;/h1&gt;&lt;p&gt;#1 &lt;b&gt;Untested Code is a Gamble&lt;/b&gt; - when do bugs popup in your system?&lt;/p&gt;&lt;p&gt;#2 &lt;b&gt;Untested Code Gets &quot;Rotten&quot;&lt;/b&gt; - afraid to touch the code? 1 person in the company that can only change the code&lt;/p&gt;&lt;p&gt;#3 &lt;b&gt;The Breaking Point&lt;/b&gt; - fixing bugs takes longer then making all the tests we need&lt;/p&gt;" style="text;html=1;strokeColor=none;fillColor=none;spacing=5;spacingTop=-20;whiteSpace=wrap;overflow=hidden;rounded=0;" parent="1" vertex="1">
          <mxGeometry x="40" y="120" width="720" height="120" as="geometry" />
        </mxCell>
        <mxCell id="dxAt-XKARZ6KwKlC3QCI-13" value="Smoke Testing (e2e)" style="rounded=0;whiteSpace=wrap;html=1;" vertex="1" parent="1">
          <mxGeometry x="827" y="1199" width="200" height="30" as="geometry" />
        </mxCell>
        <mxCell id="dxAt-XKARZ6KwKlC3QCI-14" value="Remote Testing" style="rounded=0;whiteSpace=wrap;html=1;" vertex="1" parent="1">
          <mxGeometry x="827" y="1169" width="200" height="30" as="geometry" />
        </mxCell>
        <mxCell id="dxAt-XKARZ6KwKlC3QCI-19" value="" style="edgeStyle=orthogonalEdgeStyle;rounded=0;orthogonalLoop=1;jettySize=auto;html=1;" edge="1" parent="1" source="dxAt-XKARZ6KwKlC3QCI-1" target="dxAt-XKARZ6KwKlC3QCI-18">
          <mxGeometry relative="1" as="geometry" />
        </mxCell>
        <mxCell id="dxAt-XKARZ6KwKlC3QCI-21" value="" style="edgeStyle=orthogonalEdgeStyle;rounded=0;orthogonalLoop=1;jettySize=auto;html=1;entryX=0;entryY=0.5;entryDx=0;entryDy=0;" edge="1" parent="1" source="dxAt-XKARZ6KwKlC3QCI-1" target="dxAt-XKARZ6KwKlC3QCI-20">
          <mxGeometry relative="1" as="geometry" />
        </mxCell>
        <mxCell id="dxAt-XKARZ6KwKlC3QCI-1" value="Tools + Syntax" style="rounded=0;whiteSpace=wrap;html=1;" vertex="1" parent="1">
          <mxGeometry x="827" y="1409" width="200" height="30" as="geometry" />
        </mxCell>
        <mxCell id="dxAt-XKARZ6KwKlC3QCI-25" value="" style="edgeStyle=orthogonalEdgeStyle;rounded=0;orthogonalLoop=1;jettySize=auto;html=1;" edge="1" parent="1" source="dxAt-XKARZ6KwKlC3QCI-4" target="dxAt-XKARZ6KwKlC3QCI-24">
          <mxGeometry relative="1" as="geometry" />
        </mxCell>
        <mxCell id="dxAt-XKARZ6KwKlC3QCI-4" value="Structure" style="rounded=0;whiteSpace=wrap;html=1;" vertex="1" parent="1">
          <mxGeometry x="827" y="1379" width="200" height="30" as="geometry" />
        </mxCell>
        <mxCell id="dxAt-XKARZ6KwKlC3QCI-34" value="" style="edgeStyle=orthogonalEdgeStyle;rounded=0;orthogonalLoop=1;jettySize=auto;html=1;" edge="1" parent="1" source="dxAt-XKARZ6KwKlC3QCI-5" target="dxAt-XKARZ6KwKlC3QCI-33">
          <mxGeometry relative="1" as="geometry" />
        </mxCell>
        <mxCell id="dxAt-XKARZ6KwKlC3QCI-5" value="Class Testing" style="rounded=0;whiteSpace=wrap;html=1;" vertex="1" parent="1">
          <mxGeometry x="827" y="1349" width="200" height="30" as="geometry" />
        </mxCell>
        <mxCell id="dxAt-XKARZ6KwKlC3QCI-32" value="" style="edgeStyle=orthogonalEdgeStyle;rounded=0;orthogonalLoop=1;jettySize=auto;html=1;" edge="1" parent="1" source="dxAt-XKARZ6KwKlC3QCI-6" target="dxAt-XKARZ6KwKlC3QCI-31">
          <mxGeometry relative="1" as="geometry" />
        </mxCell>
        <mxCell id="dxAt-XKARZ6KwKlC3QCI-6" value="Habit (TDD)" style="rounded=0;whiteSpace=wrap;html=1;" vertex="1" parent="1">
          <mxGeometry x="827" y="1319" width="200" height="30" as="geometry" />
        </mxCell>
        <mxCell id="dxAt-XKARZ6KwKlC3QCI-8" value="Isolation" style="rounded=0;whiteSpace=wrap;html=1;" vertex="1" parent="1">
          <mxGeometry x="827" y="1289" width="200" height="30" as="geometry" />
        </mxCell>
        <mxCell id="dxAt-XKARZ6KwKlC3QCI-9" value="Route Testing" style="rounded=0;whiteSpace=wrap;html=1;" vertex="1" parent="1">
          <mxGeometry x="827" y="1259" width="200" height="30" as="geometry" />
        </mxCell>
        <mxCell id="dxAt-XKARZ6KwKlC3QCI-7" value="DOM Testing" style="rounded=0;whiteSpace=wrap;html=1;" vertex="1" parent="1">
          <mxGeometry x="827" y="1229" width="200" height="30" as="geometry" />
        </mxCell>
        <mxCell id="dxAt-XKARZ6KwKlC3QCI-18" value="Jasmine" style="whiteSpace=wrap;html=1;rounded=0;" vertex="1" parent="1">
          <mxGeometry x="1110" y="1409" width="90" height="30" as="geometry" />
        </mxCell>
        <mxCell id="dxAt-XKARZ6KwKlC3QCI-20" value="Karma" style="whiteSpace=wrap;html=1;rounded=0;" vertex="1" parent="1">
          <mxGeometry x="1110" y="1439" width="90" height="25" as="geometry" />
        </mxCell>
        <mxCell id="dxAt-XKARZ6KwKlC3QCI-24" value="Given, When, Then" style="whiteSpace=wrap;html=1;rounded=0;" vertex="1" parent="1">
          <mxGeometry x="1110" y="1379" width="120" height="30" as="geometry" />
        </mxCell>
        <mxCell id="dxAt-XKARZ6KwKlC3QCI-31" value="TDD Guide PDF" style="whiteSpace=wrap;html=1;rounded=0;" vertex="1" parent="1">
          <mxGeometry x="1110" y="1320" width="120" height="29" as="geometry" />
        </mxCell>
        <mxCell id="dxAt-XKARZ6KwKlC3QCI-33" value="+ Components" style="whiteSpace=wrap;html=1;rounded=0;" vertex="1" parent="1">
          <mxGeometry x="1110" y="1351" width="120" height="26" as="geometry" />
        </mxCell>
      </root>
    </mxGraphModel>
  </diagram>
</mxfile>
